<svg xmlns="http://www.w3.org/2000/svg" viewBox="0 0 27.07 22"><title>IXDA_vector</title><path d="M27.07 2.6a11.1 11.1 0 0 1-3.19.87A5.57 5.57 0 0 0 26.32.41a11.12 11.12 0 0 1-3.52 1.34 5.56 5.56 0 0 0-9.46 5.07A15.77 15.77 0 0 1 1.88 1 5.56 5.56 0 0 0 3.6 8.43a5.53 5.53 0 0 1-2.52-.69v.07a5.56 5.56 0 0 0 4.46 5.45 5.57 5.57 0 0 1-2.51.1 5.56 5.56 0 0 0 5.19 3.84 11.14 11.14 0 0 1-6.9 2.38A11.31 11.31 0 0 1 0 19.5 15.72 15.72 0 0 0 8.51 22 15.69 15.69 0 0 0 24.32 6.2v-.72a11.29 11.29 0 0 0 2.75-2.88z" fill="#515b65"/></svg>