<svg xmlns="http://www.w3.org/2000/svg" viewBox="0 0 313.77 342.14"><title>icon-headshot</title><path d="M156.9,342c-34.31,0-68.63.43-102.94-.13-30.44-.5-52-20.95-53.62-51.5-1.51-28.45,1.89-56.56,11.83-83.51a90.64,90.64,0,0,1,18-30.29c12-13.07,27.17-18.88,44.47-19.23,3.64-.07,7.69,2,10.94,4,12.52,7.9,24.68,16.25,39,21.06,30.64,10.33,59.36,5.78,86.8-10.16,4.46-2.59,9.1-5.09,13-8.43,8.85-7.67,18.67-7.38,29.12-4.9,18.73,4.44,31.77,16,41.11,32.34,10,17.53,14.75,36.73,17,56.49a348.26,348.26,0,0,1,2.17,38.86c.12,31.78-21.75,54.67-53.43,55.22C225.86,342.43,191.38,342,156.9,342Z" fill="#fff"/><path d="M71.6,85c.12-47.57,38-85.13,85.62-85,48,.16,85.59,38.11,85.43,86.35-.15,46.77-38.56,84.61-85.8,84.53C109.07,170.8,71.48,132.92,71.6,85Z" fill="#fff"/></svg>