<svg xmlns="http://www.w3.org/2000/svg" viewBox="0 0 16 16"><title>icon-home</title><path d="M13.59,5.45v-4a.3.3,0,0,0-.31-.31H11.41a.3.3,0,0,0-.31.31V3.38l-2.37-2a1.2,1.2,0,0,0-1.47,0l-7,5.81a.28.28,0,0,0-.11.21.31.31,0,0,0,.07.23l.6.72a.33.33,0,0,0,.2.11.36.36,0,0,0,.23-.07L8,2.81l6.71,5.6a.3.3,0,0,0,.2.07h0a.33.33,0,0,0,.2-.11l.6-.72a.31.31,0,0,0,.07-.23.28.28,0,0,0-.11-.21Z" fill="#515b65"/><path d="M8,3.91,2.42,8.51v5.71a.63.63,0,0,0,.62.62H6.76V11.12H9.24v3.73H13a.63.63,0,0,0,.62-.62V8.57a.14.14,0,0,0,0-.06Z" fill="#515b65"/></svg>