<svg xmlns="http://www.w3.org/2000/svg" viewBox="0 0 333.72 385.1"><title>icon-lunch</title><path d="M154.29,81.48c1.83-32.25,18.1-55.61,45.55-71.64A70.68,70.68,0,0,1,230.5,0c2.26,15.76-.71,30.09-7.12,43.73-11.6,24.7-29.71,41.83-57.13,47.62C154.85,93.75,153.63,93,154.29,81.48Zm174.88,89.41c-4.14-16.35-10.69-30.54-19.73-42.34l.09-.06-1-1.06a93.51,93.51,0,0,0-13.73-14.09c-20.31-17.74-43.66-27.25-71.31-22.13-12.15,2.25-23.94,6.83-35.65,11-13.38,4.77-26.65,5.37-40.12.93q-9.48-3.12-18.86-6.52c-15.59-5.65-31.58-9.27-48-5-41.13,10.61-66.09,37.81-76.34,78.3C-3.67,202.38,0,234.77,9.35,266.56c10.89,37.14,28.6,70.68,55.54,98.72C82.65,383.77,103,390,127.77,377.85l0,.5c19.88-9.85,40.25-12.39,61.55-6.26a91.07,91.07,0,0,1,15.73,6.3c25.2,12.73,45.84,6.62,63.83-12.11,21.69-22.58,37.4-48.73,48.38-77.46q1.49-3.45,2.9-7l-.3-.14q2.45-7,4.56-14.17C333.69,235.77,337.4,203.38,329.16,170.89Z" fill="#fff"/></svg>