<svg xmlns="http://www.w3.org/2000/svg" viewBox="0 0 21.91 22"><title>IXDA_vector</title><path d="M4.45 0h.25a.21.21 0 0 1 .16.23v5.04a.16.16 0 0 0 .14.18h.51a.19.19 0 0 0 .18-.17 1.26 1.26 0 0 0 0-.19v-.72-4.1c0-.14 0-.21.17-.25h11.83a3.77 3.77 0 0 1 .89.1 4.29 4.29 0 0 1 2.29 1.41 4.08 4.08 0 0 1 1 2 7 7 0 0 1 .08 1.2v2.34a.13.13 0 0 1-.16.16h-6.6a.48.48 0 0 1-.41-.23 5.32 5.32 0 0 0-.94-.72 5.44 5.44 0 0 0-3.9-.73A5.59 5.59 0 0 0 7.11 7a.51.51 0 0 1-.37.14H.18C0 7.19 0 7.16 0 7v-.59-2.46A4.16 4.16 0 0 1 .4 2.5 4.59 4.59 0 0 1 1.82.81V5.28a.16.16 0 0 0 .18.17h.49a.19.19 0 0 0 .21-.21 1.66 1.66 0 0 0 0-.21V.6a.72.72 0 0 0 0-.1c0-.15 0-.17.12-.23a1.17 1.17 0 0 1 .43-.12c.11 0 .13 0 .12.12a.81.81 0 0 0 0 .11v4.88a.15.15 0 0 0 .17.18H4a.22.22 0 0 0 .23-.22 1.86 1.86 0 0 0 0-.25V2.62.29c.01-.21.03-.24.22-.29zM16.2 3.7v1.22a.65.65 0 0 0 .69.66h2.31a.67.67 0 0 0 .7-.69V2.52a.66.66 0 0 0-.69-.7h-2.32a.64.64 0 0 0-.68.67c-.01.4-.01.81-.01 1.21z" fill="#515b65"/><path d="M6.38 7.85a5.56 5.56 0 0 0-1 4.14 5.41 5.41 0 0 0 1.82 3.3 5.57 5.57 0 0 0 7 .27A5.43 5.43 0 0 0 16.46 12a5.57 5.57 0 0 0-1-4.1h6.25a.15.15 0 0 1 .15.15v9.76a4.1 4.1 0 0 1-1.13 2.83 4.2 4.2 0 0 1-2.38 1.33 4 4 0 0 1-.73.07H4.27a4.26 4.26 0 0 1-4.12-3.3A4.73 4.73 0 0 1 0 17.58v-6.21-3.18a1.33 1.33 0 0 1 0-.14.19.19 0 0 1 .21-.2h6.17z" fill="#515b65" fill-rule="evenodd"/><path d="M11 6.79a4.31 4.31 0 1 1-4.37 4.31A4.31 4.31 0 0 1 11 6.79zm3.18 4.36a3.18 3.18 0 1 0-3.09 3.13 3.17 3.17 0 0 0 3.06-3.13z" fill="#515b65" fill-rule="evenodd"/></svg>