<svg xmlns="http://www.w3.org/2000/svg" viewBox="0 0 771.03 112.1"><title>screenshot</title><path d="M2.19 29.68h15.24v66.4H2.19v-66.4zM94.67 57v39H79.43V61c0-14-5.31-18.5-14.42-18.5-10.34 0-17.14 7.21-17.14 20.27v33.31H32.63v-66.4h15.24v9.25H48a28.83 28.83 0 0 1 22.31-10.2C84.87 28.73 94.67 37 94.67 57zm16.16 18.1V42.6h-8.16V29.68h8.16v-22h15.24v22h19.46V42.6h-19.46v31c0 6.8 2 9.25 6.4 9.25a22.27 22.27 0 0 0 9.8-2.86l3.95 13.2c-3.95 2.18-8.16 3.95-16.87 3.95-11.45.02-18.52-7.14-18.52-22.02zm105.09-6.94h-48.44c2 9.39 9.12 15.1 18.91 15.1A20.68 20.68 0 0 0 203 75.53l10.61 9.12c-5.58 7.21-15 12.52-28 12.52-19.32 0-33.88-13.61-33.88-34.29 0-20.41 13.88-34.15 32.38-34.15 19.59 0 32.25 14 32.25 33.33a57 57 0 0 1-.45 6.12zm-48.17-12.22h33.2c-1.91-8-7.35-13.47-16.06-13.47-8.43 0-14.97 4.76-17.14 13.47zM267 28.73v17c-1.77-.14-3.54-.27-4.63-.27-11.56 0-18.1 8.3-18.1 19.18v31.44H229v-66.4h15.24v10.07h.13c5.17-7.07 12.65-11 20.68-11H267zm73.57 1v66.4H326v-8.9h-.27c-4.76 6.4-12 9.93-21.09 9.93-18.37 0-32.11-13.47-32.11-34 0-20 13.74-34.42 32-34.42 8.44 0 15.65 3.13 20.54 9h.27v-8h15.24zM326 63.28c0-11.84-8-20.82-18.91-20.82-10.61 0-19 8-19 20.82 0 11.7 7.76 20 19 20 10.33.01 18.91-8.02 18.91-20zm24.4-.28c0-20.41 14.29-34.29 34.42-34.29 10.34 0 21.22 4.22 27.89 12.38l-10.34 9a21.49 21.49 0 0 0-16.74-7.62c-11.84 0-19.73 8.3-19.73 20.41s8 20.41 19.73 20.41a23.17 23.17 0 0 0 16.87-7.07l10.5 9.24c-5.71 6.53-15.92 11.7-28.71 11.7-19.61 0-33.89-13.87-33.89-34.16zm77.21 12.11V42.6h-8.16V29.68h8.16v-22h15.24v22h19.45V42.6h-19.46v31c0 6.8 2 9.25 6.4 9.25A22.27 22.27 0 0 0 459 80l4 13.22c-3.95 2.18-8.16 3.95-16.87 3.95-11.45-.01-18.52-7.17-18.52-22.05zm46.85-45.44h15.24v66.4h-15.25V29.68zM502.18 63c0-19.59 13.88-34.29 34.83-34.29 20.41 0 34.83 13.88 34.83 34.29 0 20.14-14.42 34.15-34.83 34.15-20.95.01-34.83-14.68-34.83-34.15zm54.15 0c0-12.24-8.43-20.54-19.32-20.54-11.57 0-19.32 9-19.32 20.54 0 11.29 7.89 20.27 19.32 20.27 10.75.02 19.32-8.27 19.32-20.27zm86.83-6v39h-15.23V61c0-14-5.31-18.5-14.42-18.5-10.34 0-17.14 7.21-17.14 20.27v33.31h-15.25v-66.4h15.24v9.25h.13a28.83 28.83 0 0 1 22.31-10.2c14.57 0 24.37 8.27 24.37 28.27zM9.81 0a9.75 9.75 0 1 0 0 19.49 9.89 9.89 0 0 0 9.95-9.81A10 10 0 0 0 9.81 0zm472.26 0a9.75 9.75 0 1 0 0 19.49 9.89 9.89 0 0 0 10-9.81 10 10 0 0 0-10-9.68z" fill="#1e1946"/><path fill="#6b61ff" d="M707.57 28.44h56.02v13.64h-56.02z"/><path fill="#00f" d="M753.15 28.44h17.88l-40.75 83.66h-16.24l39.11-83.66z"/><path fill="#009ede" d="M675.46 96.11V28.44h14.77v67.67h-14.77z"/></svg>