<svg xmlns="http://www.w3.org/2000/svg" viewBox="0 0 142.05 56.52"><title>IXDA_vector</title><path fill="#525f67" d="M0 .81h6.73V45.2H0zM67.95.81h15.52A15 15 0 0 1 97 8.29C99.19 12 99.37 13.72 99.37 23c0 10-.5 11.72-2.49 14.84A15.83 15.83 0 0 1 83 45.2H67.95V.81zm6.73 38h8c3.8 0 6.48-1.31 8.23-3.86 1.5-2.24 1.68-3.49 1.68-11.72 0-8-.19-9.91-2-12.35-2.06-2.81-4.3-3.74-7.92-3.74h-8v31.7zM131.51 35.29h-16.83l-3.43 9.91h-7.11L120.29.81h5.61l16.15 44.39h-7.11zm-1.93-6l-6.42-19.38H123l-6.39 19.39h13zM.01 51.67h.73v4.81H.01zM3.11 51.67h.69l2.17 3.42h.02v-3.42h.73v4.81h-.69l-2.18-3.42h-.01v3.42h-.73v-4.81zM9.9 52.32H8.58v-.65h3.37v.65h-1.32v4.16H9.9v-4.16zM13.81 51.67h3.08v.69h-2.35v1.37h2v.65h-2v1.41h2.35v.69h-3.08v-4.81zM18.92 51.67h1.88a1.43 1.43 0 0 1 1 .32 1.39 1.39 0 0 1-.45 2.36l1.11 2.14h-.88l-1-2.05h-.93v2.05h-.73v-4.82zm.73 2.11h1.1a.75.75 0 0 0 .82-.78.65.65 0 0 0-.24-.55.8.8 0 0 0-.53-.15h-1.15v1.46zM26.86 55.41H25l-.37 1.08h-.74l1.75-4.81h.61l1.75 4.8h-.77zm-.21-.65L26 52.65l-.7 2.1h1.4zM33 55.13a1.66 1.66 0 0 1-1.69 1.39 1.7 1.7 0 0 1-1.5-.87 2.71 2.71 0 0 1-.21-1.58 2.72 2.72 0 0 1 .21-1.58 1.72 1.72 0 0 1 3.19.56h-.78a1 1 0 0 0-.92-.7.92.92 0 0 0-.74.35 1.8 1.8 0 0 0-.24 1.37 1.8 1.8 0 0 0 .24 1.36.92.92 0 0 0 .74.35 1 1 0 0 0 .92-.66H33zM35.67 52.32h-1.32v-.65h3.37v.65H36.4v4.16h-.73v-4.16zM39.58 51.67h.73v4.81h-.73zM42.73 52.49a1.74 1.74 0 0 1 3 0 2.71 2.71 0 0 1 .21 1.58 2.7 2.7 0 0 1-.21 1.58 1.74 1.74 0 0 1-3 0 2.7 2.7 0 0 1-.21-1.58 2.71 2.71 0 0 1 .21-1.58m.76 2.95a1 1 0 0 0 1.48 0 1.79 1.79 0 0 0 .24-1.36 1.79 1.79 0 0 0-.21-1.37 1 1 0 0 0-1.48 0 1.79 1.79 0 0 0-.25 1.37 1.79 1.79 0 0 0 .25 1.36M48.15 51.67h.69l2.18 3.42h.01v-3.42h.73v4.81h-.69l-2.17-3.42h-.02v3.42h-.73v-4.81zM57.1 51.67h1.68a1.64 1.64 0 0 1 1.47.81 2.56 2.56 0 0 1 .26 1.6 2.43 2.43 0 0 1-.27 1.61 1.71 1.71 0 0 1-1.5.8H57.1v-4.82zm.73 4.12h.87a1 1 0 0 0 .89-.42 2 2 0 0 0 .18-1.27 2 2 0 0 0-.22-1.34.92.92 0 0 0-.86-.41h-.86v3.43zM62.71 51.67h3.07v.69h-2.34v1.37h2v.65h-2v1.41h2.34v.69h-3.07v-4.81zM67.88 55.31a2.22 2.22 0 0 0 1.36.48.79.79 0 0 0 1-.67.63.63 0 0 0-.63-.65l-.64-.09A1.34 1.34 0 0 1 67.65 53a1.39 1.39 0 0 1 1.57-1.41 2.83 2.83 0 0 1 1.56.5l-.41.6a2.23 2.23 0 0 0-1.19-.37.7.7 0 0 0-.8.69.67.67 0 0 0 .68.61l.54.07a1.37 1.37 0 0 1 1.32 1.39 1.44 1.44 0 0 1-1.69 1.4 2.67 2.67 0 0 1-1.84-.66zM73.04 51.67h.73v4.81h-.73zM77.7 53.83h1.71v1a1.73 1.73 0 0 1-3.22.84 2.73 2.73 0 0 1-.19-1.6 2.74 2.74 0 0 1 .21-1.58 1.72 1.72 0 0 1 3.19.56h-.79a1 1 0 0 0-.92-.7.93.93 0 0 0-.75.35 1.81 1.81 0 0 0-.24 1.37 1.81 1.81 0 0 0 .24 1.36.93.93 0 0 0 .75.35 1 1 0 0 0 1-1v-.26h-1v-.69zM81.61 51.67h.69l2.18 3.42h.01v-3.42h.73v4.81h-.69l-2.18-3.42h-.01v3.42h-.73v-4.81zM93 55.41h-1.8l-.37 1.08h-.77l1.75-4.81h.61l1.75 4.81h-.77zm-.21-.65l-.69-2.1-.69 2.1h1.4zM96.09 55.31a2.21 2.21 0 0 0 1.36.48.79.79 0 0 0 1-.67.63.63 0 0 0-.63-.65l-.64-.09A1.33 1.33 0 0 1 95.87 53a1.39 1.39 0 0 1 1.57-1.41 2.82 2.82 0 0 1 1.56.5l-.4.6a2.26 2.26 0 0 0-1.19-.37.7.7 0 0 0-.8.69.66.66 0 0 0 .68.61l.54.07a1.37 1.37 0 0 1 1.32 1.39 1.44 1.44 0 0 1-1.69 1.4 2.68 2.68 0 0 1-1.84-.66zM101.32 55.31a2.22 2.22 0 0 0 1.37.48.79.79 0 0 0 1-.67.63.63 0 0 0-.63-.65l-.63-.09A1.34 1.34 0 0 1 101.1 53a1.39 1.39 0 0 1 1.57-1.41 2.83 2.83 0 0 1 1.56.5l-.41.6a2.24 2.24 0 0 0-1.19-.37.7.7 0 0 0-.8.69.66.66 0 0 0 .68.61l.54.07a1.37 1.37 0 0 1 1.32 1.39 1.44 1.44 0 0 1-1.69 1.4 2.69 2.69 0 0 1-1.84-.66zM106.54 52.49a1.74 1.74 0 0 1 3 0 2.75 2.75 0 0 1 .21 1.58 2.74 2.74 0 0 1-.21 1.58 1.74 1.74 0 0 1-3 0 2.71 2.71 0 0 1-.21-1.58 2.72 2.72 0 0 1 .21-1.58m.76 2.95a1 1 0 0 0 1.49 0 1.83 1.83 0 0 0 .24-1.36 1.83 1.83 0 0 0-.24-1.37 1 1 0 0 0-1.49 0 1.8 1.8 0 0 0-.24 1.37 1.8 1.8 0 0 0 .24 1.36M115.2 55.13a1.65 1.65 0 0 1-1.69 1.39 1.71 1.71 0 0 1-1.51-.87 2.73 2.73 0 0 1-.21-1.58 2.74 2.74 0 0 1 .21-1.58 1.71 1.71 0 0 1 1.51-.87 1.69 1.69 0 0 1 1.69 1.43h-.77a1 1 0 0 0-.92-.7.93.93 0 0 0-.74.35 1.8 1.8 0 0 0-.24 1.37 1.8 1.8 0 0 0 .24 1.36.92.92 0 0 0 .74.35 1 1 0 0 0 .92-.66h.77zM117.07 51.67h.73v4.81h-.73zM122.63 55.41h-1.82l-.37 1.08h-.77l1.75-4.81h.58l1.75 4.81H123zm-.21-.65l-.7-2.1-.7 2.1h1.41zM125.96 52.32h-1.32v-.65H128v.65h-1.31v4.16h-.73v-4.16zM129.87 51.67h.73v4.81h-.73zM133 52.49a1.75 1.75 0 0 1 3 0 2.77 2.77 0 0 1 .2 1.58 2.76 2.76 0 0 1-.2 1.58 1.75 1.75 0 0 1-3 0 2.73 2.73 0 0 1-.21-1.58 2.74 2.74 0 0 1 .21-1.58m.76 2.95a1 1 0 0 0 1.49 0 1.81 1.81 0 0 0 .24-1.36 1.81 1.81 0 0 0-.24-1.37 1 1 0 0 0-1.49 0 1.81 1.81 0 0 0-.24 1.37 1.81 1.81 0 0 0 .24 1.36M138.44 51.67h.68l2.18 3.42h.02v-3.42h.72v4.81h-.68l-2.18-3.42h-.01v3.42h-.73v-4.81z"/><rect x="33.59" y="1.17" width="7.63" height="7.63" rx=".99" ry=".99" transform="rotate(-45 37.405 4.986)" fill="#56c4c4"/><path d="M17.76 11.63v.24-.24zM23.32 45.21zM24.14 45.15h-.19.19M17.78 12.16v0M17.76 39.18v.43-.43zM50.58 45.14a1.14 1.14 0 0 0 .32.07.93.93 0 0 1-.32-.07M24.56 44.93a1 1 0 0 1-.27.18 1.08 1.08 0 0 0 .27-.18M57 39.12v0M50 44.24v-5.16a1 1 0 0 1 1-1h5.15a1 1 0 0 1 .89.59 1 1 0 0 0-.23-.34l-12.1-12.1a1 1 0 0 1 0-1.39l12-12a1.07 1.07 0 0 0 .07-.1 1 1 0 0 1-.65.26h-5.21a1 1 0 0 1-1-1V6.89a1 1 0 0 1 .27-.66h-.06l-12.06 12a1 1 0 0 1-1.39 0l-12.07-12a1 1 0 0 1 .25.63V12a1 1 0 0 1-1 1h-5.13a1 1 0 0 1-.65-.26l12.08 12.13a1 1 0 0 1 0 1.39L18.07 38.35a1 1 0 0 0-.23.34 1 1 0 0 1 .88-.58h5.15a1 1 0 0 1 1 1v5.16a1 1 0 0 1-.28.68h.05l12.07-12.14a1 1 0 0 1 1.39 0L50.19 44.9a1 1 0 0 0 .34.23 1 1 0 0 1-.53-.89" fill="#56c4c4"/><path d="M57 38.7a1 1 0 0 1 .07.37 1.12 1.12 0 0 0-.07-.37M17.83 38.76a1.2 1.2 0 0 0-.06.28 1 1 0 0 1 .06-.28" fill="#56c4c4"/><path d="M23.89 5.92h-5.16a1 1 0 0 0-1 1V12a1 1 0 0 0 1 1h5.16a1 1 0 0 0 1-1V6.89a1 1 0 0 0-1-1M56.08 5.92h-5.16a1 1 0 0 0-1 1V12a1 1 0 0 0 1 1h5.16a1 1 0 0 0 1-1V6.89a1 1 0 0 0-1-1M23.89 38.11h-5.16a1 1 0 0 0-1 1v5.16a1 1 0 0 0 1 1h5.16a1 1 0 0 0 1-1v-5.19a1 1 0 0 0-1-1M56.08 38.11h-5.16a1 1 0 0 0-1 1v5.16a1 1 0 0 0 1 1h5.16a1 1 0 0 0 1-1v-5.19a1 1 0 0 0-1-1" fill="#525f67"/></svg>